<mxfile host="app.diagrams.net" modified="2021-12-30T19:33:02.195Z" agent="5.0 (Macintosh; Intel Mac OS X 10_15_7) AppleWebKit/537.36 (KHTML, like Gecko) Chrome/96.0.4664.110 Safari/537.36" etag="WKTaEoU6SpZThRDnIeDr" version="16.1.2" type="github">
  <diagram id="5zCuhfwVEnSTou-53F21" name="Page-1">
    <mxGraphModel dx="1977" dy="2632" grid="1" gridSize="10" guides="1" tooltips="1" connect="1" arrows="1" fold="1" page="1" pageScale="1" pageWidth="850" pageHeight="1100" math="0" shadow="0">
      <root>
        <mxCell id="0" />
        <mxCell id="1" parent="0" />
        <mxCell id="A4m7OmumFzDa8KD8eZDD-2" value="" style="rounded=0;whiteSpace=wrap;html=1;" vertex="1" parent="1">
          <mxGeometry x="560" y="810" width="140" height="30" as="geometry" />
        </mxCell>
        <mxCell id="A4m7OmumFzDa8KD8eZDD-3" value="" style="rounded=0;whiteSpace=wrap;html=1;" vertex="1" parent="1">
          <mxGeometry x="560" y="730" width="140" height="30" as="geometry" />
        </mxCell>
        <mxCell id="A4m7OmumFzDa8KD8eZDD-4" value="" style="rounded=0;whiteSpace=wrap;html=1;" vertex="1" parent="1">
          <mxGeometry x="560" y="650" width="140" height="30" as="geometry" />
        </mxCell>
        <mxCell id="A4m7OmumFzDa8KD8eZDD-5" value="" style="rounded=0;whiteSpace=wrap;html=1;" vertex="1" parent="1">
          <mxGeometry x="560" y="570" width="140" height="30" as="geometry" />
        </mxCell>
        <mxCell id="A4m7OmumFzDa8KD8eZDD-6" value="" style="rounded=0;whiteSpace=wrap;html=1;" vertex="1" parent="1">
          <mxGeometry x="560" y="490" width="140" height="30" as="geometry" />
        </mxCell>
        <mxCell id="A4m7OmumFzDa8KD8eZDD-7" value="" style="rounded=0;whiteSpace=wrap;html=1;" vertex="1" parent="1">
          <mxGeometry x="980" y="490" width="140" height="30" as="geometry" />
        </mxCell>
        <mxCell id="A4m7OmumFzDa8KD8eZDD-8" value="" style="rounded=0;whiteSpace=wrap;html=1;" vertex="1" parent="1">
          <mxGeometry x="980" y="570" width="140" height="30" as="geometry" />
        </mxCell>
        <mxCell id="A4m7OmumFzDa8KD8eZDD-9" value="" style="rounded=0;whiteSpace=wrap;html=1;" vertex="1" parent="1">
          <mxGeometry x="980" y="650" width="140" height="30" as="geometry" />
        </mxCell>
        <mxCell id="A4m7OmumFzDa8KD8eZDD-10" value="" style="rounded=0;whiteSpace=wrap;html=1;" vertex="1" parent="1">
          <mxGeometry x="980" y="730" width="140" height="30" as="geometry" />
        </mxCell>
        <mxCell id="A4m7OmumFzDa8KD8eZDD-11" value="" style="rounded=0;whiteSpace=wrap;html=1;" vertex="1" parent="1">
          <mxGeometry x="980" y="810" width="140" height="30" as="geometry" />
        </mxCell>
        <mxCell id="A4m7OmumFzDa8KD8eZDD-13" value="" style="rounded=0;whiteSpace=wrap;html=1;" vertex="1" parent="1">
          <mxGeometry x="560" y="960" width="140" height="30" as="geometry" />
        </mxCell>
        <mxCell id="A4m7OmumFzDa8KD8eZDD-14" value="" style="rounded=0;whiteSpace=wrap;html=1;" vertex="1" parent="1">
          <mxGeometry x="700" y="960" width="140" height="30" as="geometry" />
        </mxCell>
        <mxCell id="A4m7OmumFzDa8KD8eZDD-15" value="" style="rounded=0;whiteSpace=wrap;html=1;" vertex="1" parent="1">
          <mxGeometry x="840" y="960" width="140" height="30" as="geometry" />
        </mxCell>
        <mxCell id="A4m7OmumFzDa8KD8eZDD-16" value="" style="rounded=0;whiteSpace=wrap;html=1;" vertex="1" parent="1">
          <mxGeometry x="980" y="960" width="140" height="30" as="geometry" />
        </mxCell>
        <mxCell id="A4m7OmumFzDa8KD8eZDD-17" value="" style="rounded=0;whiteSpace=wrap;html=1;" vertex="1" parent="1">
          <mxGeometry x="1120" y="960" width="140" height="30" as="geometry" />
        </mxCell>
        <mxCell id="A4m7OmumFzDa8KD8eZDD-18" value="" style="rounded=0;whiteSpace=wrap;html=1;" vertex="1" parent="1">
          <mxGeometry x="530" y="960" width="30" height="140" as="geometry" />
        </mxCell>
        <mxCell id="A4m7OmumFzDa8KD8eZDD-20" value="" style="shape=image;html=1;verticalAlign=top;verticalLabelPosition=bottom;labelBackgroundColor=#ffffff;imageAspect=0;aspect=fixed;image=https://cdn4.iconfinder.com/data/icons/48-bubbles/48/24.TV-128.png" vertex="1" parent="1">
          <mxGeometry x="742" y="1060" width="238" height="238" as="geometry" />
        </mxCell>
        <mxCell id="A4m7OmumFzDa8KD8eZDD-21" value="" style="points=[];aspect=fixed;html=1;align=center;shadow=0;dashed=0;image;image=img/lib/allied_telesis/computer_and_terminals/Personal_Computer_with_Server.svg;" vertex="1" parent="1">
          <mxGeometry x="628" y="457.6" width="62.400000000000006" height="62.400000000000006" as="geometry" />
        </mxCell>
        <mxCell id="A4m7OmumFzDa8KD8eZDD-22" value="" style="points=[];aspect=fixed;html=1;align=center;shadow=0;dashed=0;image;image=img/lib/allied_telesis/computer_and_terminals/Personal_Computer_with_Server.svg;" vertex="1" parent="1">
          <mxGeometry x="628" y="537.6" width="62.400000000000006" height="62.400000000000006" as="geometry" />
        </mxCell>
        <mxCell id="A4m7OmumFzDa8KD8eZDD-23" value="" style="points=[];aspect=fixed;html=1;align=center;shadow=0;dashed=0;image;image=img/lib/allied_telesis/computer_and_terminals/Personal_Computer_with_Server.svg;" vertex="1" parent="1">
          <mxGeometry x="628" y="617.6" width="62.400000000000006" height="62.400000000000006" as="geometry" />
        </mxCell>
        <mxCell id="A4m7OmumFzDa8KD8eZDD-24" value="" style="points=[];aspect=fixed;html=1;align=center;shadow=0;dashed=0;image;image=img/lib/allied_telesis/computer_and_terminals/Personal_Computer_with_Server.svg;" vertex="1" parent="1">
          <mxGeometry x="628" y="697.6" width="62.400000000000006" height="62.400000000000006" as="geometry" />
        </mxCell>
        <mxCell id="A4m7OmumFzDa8KD8eZDD-25" value="" style="points=[];aspect=fixed;html=1;align=center;shadow=0;dashed=0;image;image=img/lib/allied_telesis/computer_and_terminals/Personal_Computer_with_Server.svg;" vertex="1" parent="1">
          <mxGeometry x="628" y="777.6" width="62.400000000000006" height="62.400000000000006" as="geometry" />
        </mxCell>
        <mxCell id="A4m7OmumFzDa8KD8eZDD-26" value="" style="points=[];aspect=fixed;html=1;align=center;shadow=0;dashed=0;image;image=img/lib/allied_telesis/computer_and_terminals/Personal_Computer_with_Server.svg;" vertex="1" parent="1">
          <mxGeometry x="1050" y="457.6" width="62.400000000000006" height="62.400000000000006" as="geometry" />
        </mxCell>
        <mxCell id="A4m7OmumFzDa8KD8eZDD-27" value="" style="points=[];aspect=fixed;html=1;align=center;shadow=0;dashed=0;image;image=img/lib/allied_telesis/computer_and_terminals/Personal_Computer_with_Server.svg;" vertex="1" parent="1">
          <mxGeometry x="1050" y="537.6" width="62.400000000000006" height="62.400000000000006" as="geometry" />
        </mxCell>
        <mxCell id="A4m7OmumFzDa8KD8eZDD-28" value="" style="points=[];aspect=fixed;html=1;align=center;shadow=0;dashed=0;image;image=img/lib/allied_telesis/computer_and_terminals/Personal_Computer_with_Server.svg;" vertex="1" parent="1">
          <mxGeometry x="1050" y="617.6" width="62.400000000000006" height="62.400000000000006" as="geometry" />
        </mxCell>
        <mxCell id="A4m7OmumFzDa8KD8eZDD-29" value="" style="points=[];aspect=fixed;html=1;align=center;shadow=0;dashed=0;image;image=img/lib/allied_telesis/computer_and_terminals/Personal_Computer_with_Server.svg;" vertex="1" parent="1">
          <mxGeometry x="1050" y="697.6" width="62.400000000000006" height="62.400000000000006" as="geometry" />
        </mxCell>
        <mxCell id="A4m7OmumFzDa8KD8eZDD-30" value="" style="points=[];aspect=fixed;html=1;align=center;shadow=0;dashed=0;image;image=img/lib/allied_telesis/computer_and_terminals/Personal_Computer_with_Server.svg;" vertex="1" parent="1">
          <mxGeometry x="1050" y="777.6" width="62.400000000000006" height="62.400000000000006" as="geometry" />
        </mxCell>
        <mxCell id="A4m7OmumFzDa8KD8eZDD-31" value="" style="image;html=1;image=img/lib/clip_art/computers/Server_Rack_Partial_128x128.png" vertex="1" parent="1">
          <mxGeometry x="790" y="557.6" width="110" height="140" as="geometry" />
        </mxCell>
        <mxCell id="A4m7OmumFzDa8KD8eZDD-32" value="" style="image;html=1;image=img/lib/clip_art/computers/Laptop_128x128.png" vertex="1" parent="1">
          <mxGeometry x="1190" y="930" width="50" height="60" as="geometry" />
        </mxCell>
        <mxCell id="A4m7OmumFzDa8KD8eZDD-37" value="" style="image;html=1;image=img/lib/clip_art/computers/Laptop_128x128.png" vertex="1" parent="1">
          <mxGeometry x="1130" y="930" width="50" height="60" as="geometry" />
        </mxCell>
        <mxCell id="A4m7OmumFzDa8KD8eZDD-38" value="" style="image;html=1;image=img/lib/clip_art/computers/Laptop_128x128.png" vertex="1" parent="1">
          <mxGeometry x="1002.4" y="930" width="50" height="60" as="geometry" />
        </mxCell>
        <mxCell id="A4m7OmumFzDa8KD8eZDD-39" value="" style="image;html=1;image=img/lib/clip_art/computers/Laptop_128x128.png" vertex="1" parent="1">
          <mxGeometry x="1062.4" y="930" width="50" height="60" as="geometry" />
        </mxCell>
        <mxCell id="A4m7OmumFzDa8KD8eZDD-40" value="" style="image;html=1;image=img/lib/clip_art/computers/Laptop_128x128.png" vertex="1" parent="1">
          <mxGeometry x="861" y="930" width="50" height="60" as="geometry" />
        </mxCell>
        <mxCell id="A4m7OmumFzDa8KD8eZDD-41" value="" style="image;html=1;image=img/lib/clip_art/computers/Laptop_128x128.png" vertex="1" parent="1">
          <mxGeometry x="921.0000000000001" y="930" width="50" height="60" as="geometry" />
        </mxCell>
        <mxCell id="A4m7OmumFzDa8KD8eZDD-42" value="" style="shape=image;html=1;verticalAlign=top;verticalLabelPosition=bottom;labelBackgroundColor=#ffffff;imageAspect=0;aspect=fixed;image=https://cdn1.iconfinder.com/data/icons/100-basic-for-user-interface/32/29-Screen-128.png" vertex="1" parent="1">
          <mxGeometry x="775" y="930" width="60" height="60" as="geometry" />
        </mxCell>
        <mxCell id="A4m7OmumFzDa8KD8eZDD-43" value="" style="shape=image;html=1;verticalAlign=top;verticalLabelPosition=bottom;labelBackgroundColor=#ffffff;imageAspect=0;aspect=fixed;image=https://cdn1.iconfinder.com/data/icons/100-basic-for-user-interface/32/29-Screen-128.png" vertex="1" parent="1">
          <mxGeometry x="707" y="930" width="60" height="60" as="geometry" />
        </mxCell>
        <mxCell id="A4m7OmumFzDa8KD8eZDD-44" value="" style="fontColor=#0066CC;verticalAlign=top;verticalLabelPosition=bottom;labelPosition=center;align=center;html=1;outlineConnect=0;fillColor=#CCCCCC;strokeColor=#6881B3;gradientColor=none;gradientDirection=north;strokeWidth=2;shape=mxgraph.networks.patch_panel;" vertex="1" parent="1">
          <mxGeometry x="580" y="950" width="100" height="35" as="geometry" />
        </mxCell>
      </root>
    </mxGraphModel>
  </diagram>
</mxfile>
